<mxfile host="app.diagrams.net" modified="2023-05-08T08:30:29.270Z" agent="Mozilla/5.0 (Windows NT 10.0; Win64; x64) AppleWebKit/537.36 (KHTML, like Gecko) Chrome/112.0.0.0 Safari/537.36" etag="2UmyOpd81VT_LUhkgk-K" version="21.2.9" type="github">
  <diagram id="C5RBs43oDa-KdzZeNtuy" name="Page-1">
    <mxGraphModel dx="931" dy="685" grid="1" gridSize="10" guides="1" tooltips="1" connect="1" arrows="1" fold="1" page="1" pageScale="1" pageWidth="827" pageHeight="1169" math="0" shadow="0">
      <root>
        <mxCell id="WIyWlLk6GJQsqaUBKTNV-0" />
        <mxCell id="WIyWlLk6GJQsqaUBKTNV-1" parent="WIyWlLk6GJQsqaUBKTNV-0" />
        <mxCell id="4j72tdMeT4Ba6fIEQLCz-11" value="返回分析对话" style="edgeStyle=orthogonalEdgeStyle;rounded=1;orthogonalLoop=1;jettySize=auto;html=1;entryX=-0.008;entryY=0.367;entryDx=0;entryDy=0;entryPerimeter=0;endArrow=block;endFill=0;fontFamily=得意黑;fontSource=https%3A%2F%2Fgithub.com%2FKonghaYao%2Fchinese-free-web-font-storage%2Fblob%2Fbranch%2Fpackages%2Fdyh%2Ffonts%2FSmileySans-Oblique.woff2;" edge="1" parent="WIyWlLk6GJQsqaUBKTNV-1" source="4j72tdMeT4Ba6fIEQLCz-1" target="4j72tdMeT4Ba6fIEQLCz-9">
          <mxGeometry relative="1" as="geometry" />
        </mxCell>
        <mxCell id="4j72tdMeT4Ba6fIEQLCz-1" value="" style="swimlane;startSize=0;fillColor=#f8cecc;strokeColor=#b85450;swimlaneFillColor=#E68742;backgroundOutline=0;fontFamily=得意黑;fontSource=https%3A%2F%2Fgithub.com%2FKonghaYao%2Fchinese-free-web-font-storage%2Fblob%2Fbranch%2Fpackages%2Fdyh%2Ffonts%2FSmileySans-Oblique.woff2;rounded=1;" vertex="1" parent="WIyWlLk6GJQsqaUBKTNV-1">
          <mxGeometry x="230" y="120" width="310" height="180" as="geometry" />
        </mxCell>
        <mxCell id="4j72tdMeT4Ba6fIEQLCz-0" value="API选择" style="rounded=1;whiteSpace=wrap;html=1;fontFamily=得意黑;fontSource=https%3A%2F%2Fgithub.com%2FKonghaYao%2Fchinese-free-web-font-storage%2Fblob%2Fbranch%2Fpackages%2Fdyh%2Ffonts%2FSmileySans-Oblique.woff2;" vertex="1" parent="4j72tdMeT4Ba6fIEQLCz-1">
          <mxGeometry x="30" y="55" width="120" height="90" as="geometry" />
        </mxCell>
        <mxCell id="4j72tdMeT4Ba6fIEQLCz-5" value="数据分析" style="rounded=1;whiteSpace=wrap;html=1;fontFamily=得意黑;fontSource=https%3A%2F%2Fgithub.com%2FKonghaYao%2Fchinese-free-web-font-storage%2Fblob%2Fbranch%2Fpackages%2Fdyh%2Ffonts%2FSmileySans-Oblique.woff2;" vertex="1" parent="4j72tdMeT4Ba6fIEQLCz-1">
          <mxGeometry x="174" y="55" width="120" height="90" as="geometry" />
        </mxCell>
        <mxCell id="4j72tdMeT4Ba6fIEQLCz-4" value="&lt;h2&gt;大语言模块&lt;/h2&gt;" style="text;html=1;strokeColor=none;fillColor=none;align=center;verticalAlign=middle;whiteSpace=wrap;rounded=1;fontColor=#FFFFFF;fontFamily=得意黑;fontSource=https%3A%2F%2Fgithub.com%2FKonghaYao%2Fchinese-free-web-font-storage%2Fblob%2Fbranch%2Fpackages%2Fdyh%2Ffonts%2FSmileySans-Oblique.woff2;" vertex="1" parent="4j72tdMeT4Ba6fIEQLCz-1">
          <mxGeometry x="100" width="110" height="30" as="geometry" />
        </mxCell>
        <mxCell id="4j72tdMeT4Ba6fIEQLCz-6" style="edgeStyle=orthogonalEdgeStyle;rounded=1;orthogonalLoop=1;jettySize=auto;html=1;endArrow=block;endFill=0;entryX=0;entryY=0.5;entryDx=0;entryDy=0;exitX=1;exitY=0.25;exitDx=0;exitDy=0;fontFamily=得意黑;fontSource=https%3A%2F%2Fgithub.com%2FKonghaYao%2Fchinese-free-web-font-storage%2Fblob%2Fbranch%2Fpackages%2Fdyh%2Ffonts%2FSmileySans-Oblique.woff2;" edge="1" parent="WIyWlLk6GJQsqaUBKTNV-1" source="WIyWlLk6GJQsqaUBKTNV-3" target="4j72tdMeT4Ba6fIEQLCz-1">
          <mxGeometry relative="1" as="geometry">
            <Array as="points" />
          </mxGeometry>
        </mxCell>
        <mxCell id="4j72tdMeT4Ba6fIEQLCz-8" value="返回调用API数据" style="edgeLabel;html=1;align=center;verticalAlign=middle;resizable=0;points=[];fontFamily=得意黑;fontSource=https%3A%2F%2Fgithub.com%2FKonghaYao%2Fchinese-free-web-font-storage%2Fblob%2Fbranch%2Fpackages%2Fdyh%2Ffonts%2FSmileySans-Oblique.woff2;rounded=1;" vertex="1" connectable="0" parent="4j72tdMeT4Ba6fIEQLCz-6">
          <mxGeometry x="-0.4406" y="1" relative="1" as="geometry">
            <mxPoint x="19" y="-9" as="offset" />
          </mxGeometry>
        </mxCell>
        <mxCell id="WIyWlLk6GJQsqaUBKTNV-3" value="后端" style="rounded=1;whiteSpace=wrap;html=1;fontSize=12;glass=0;strokeWidth=1;shadow=0;fillColor=#FBE6D8;fontFamily=得意黑;fontSource=https%3A%2F%2Fgithub.com%2FKonghaYao%2Fchinese-free-web-font-storage%2Fblob%2Fbranch%2Fpackages%2Fdyh%2Ffonts%2FSmileySans-Oblique.woff2;" parent="WIyWlLk6GJQsqaUBKTNV-1" vertex="1">
          <mxGeometry y="200" width="120" height="40" as="geometry" />
        </mxCell>
        <mxCell id="WIyWlLk6GJQsqaUBKTNV-2" value="" style="rounded=1;html=1;jettySize=auto;orthogonalLoop=1;fontSize=11;endArrow=block;endFill=0;endSize=8;strokeWidth=1;shadow=0;labelBackgroundColor=none;edgeStyle=orthogonalEdgeStyle;entryX=1;entryY=0.75;entryDx=0;entryDy=0;exitX=-0.003;exitY=0.617;exitDx=0;exitDy=0;exitPerimeter=0;fontFamily=得意黑;fontSource=https%3A%2F%2Fgithub.com%2FKonghaYao%2Fchinese-free-web-font-storage%2Fblob%2Fbranch%2Fpackages%2Fdyh%2Ffonts%2FSmileySans-Oblique.woff2;" parent="WIyWlLk6GJQsqaUBKTNV-1" source="4j72tdMeT4Ba6fIEQLCz-1" target="WIyWlLk6GJQsqaUBKTNV-3" edge="1">
          <mxGeometry relative="1" as="geometry">
            <mxPoint x="200" y="230" as="sourcePoint" />
            <mxPoint x="160" y="220" as="targetPoint" />
            <Array as="points">
              <mxPoint x="229" y="230" />
            </Array>
          </mxGeometry>
        </mxCell>
        <mxCell id="4j72tdMeT4Ba6fIEQLCz-7" value="调用API" style="text;html=1;strokeColor=none;fillColor=none;align=center;verticalAlign=middle;whiteSpace=wrap;rounded=1;fontFamily=得意黑;fontSource=https%3A%2F%2Fgithub.com%2FKonghaYao%2Fchinese-free-web-font-storage%2Fblob%2Fbranch%2Fpackages%2Fdyh%2Ffonts%2FSmileySans-Oblique.woff2;" vertex="1" parent="WIyWlLk6GJQsqaUBKTNV-1">
          <mxGeometry x="140" y="225" width="60" height="30" as="geometry" />
        </mxCell>
        <mxCell id="4j72tdMeT4Ba6fIEQLCz-10" style="edgeStyle=orthogonalEdgeStyle;rounded=1;orthogonalLoop=1;jettySize=auto;html=1;entryX=1.006;entryY=0.556;entryDx=0;entryDy=0;entryPerimeter=0;endArrow=block;endFill=0;fontFamily=得意黑;fontSource=https%3A%2F%2Fgithub.com%2FKonghaYao%2Fchinese-free-web-font-storage%2Fblob%2Fbranch%2Fpackages%2Fdyh%2Ffonts%2FSmileySans-Oblique.woff2;" edge="1" parent="WIyWlLk6GJQsqaUBKTNV-1" source="4j72tdMeT4Ba6fIEQLCz-9" target="4j72tdMeT4Ba6fIEQLCz-1">
          <mxGeometry relative="1" as="geometry" />
        </mxCell>
        <mxCell id="4j72tdMeT4Ba6fIEQLCz-12" value="用户提问" style="edgeLabel;html=1;align=center;verticalAlign=middle;resizable=0;points=[];fontFamily=得意黑;fontSource=https%3A%2F%2Fgithub.com%2FKonghaYao%2Fchinese-free-web-font-storage%2Fblob%2Fbranch%2Fpackages%2Fdyh%2Ffonts%2FSmileySans-Oblique.woff2;rounded=1;" vertex="1" connectable="0" parent="4j72tdMeT4Ba6fIEQLCz-10">
          <mxGeometry x="0.2637" y="1" relative="1" as="geometry">
            <mxPoint as="offset" />
          </mxGeometry>
        </mxCell>
        <mxCell id="4j72tdMeT4Ba6fIEQLCz-9" value="&lt;font data-font-src=&quot;https://github.com/KonghaYao/chinese-free-web-font-storage/tree/branch/packages/dyh/fonts&quot; color=&quot;#ffffff&quot;&gt;客户端&lt;/font&gt;" style="rounded=1;whiteSpace=wrap;html=1;fillColor=#6A95B5;fontFamily=得意黑;fontSource=https%3A%2F%2Fgithub.com%2FKonghaYao%2Fchinese-free-web-font-storage%2Fblob%2Fbranch%2Fpackages%2Fdyh%2Ffonts%2FSmileySans-Oblique.woff2;" vertex="1" parent="WIyWlLk6GJQsqaUBKTNV-1">
          <mxGeometry x="670" y="185" width="120" height="70" as="geometry" />
        </mxCell>
      </root>
    </mxGraphModel>
  </diagram>
</mxfile>
